# Blender 5.1.2
# www.blender.org
mtllib Untitled.mtl
o Cylinder
v 0.000000 -0.536754 -0.165435
v 0.000000 0.536754 -0.165435
v 0.106339 -0.536754 -0.126730
v 0.106339 0.536754 -0.126730
v 0.162921 -0.536754 -0.028727
v 0.162921 0.536754 -0.028727
v 0.143271 -0.536754 0.082717
v 0.143271 0.536754 0.082717
v 0.056582 -0.536754 0.155458
v 0.056582 0.536754 0.155458
v -0.056582 -0.536754 0.155458
v -0.056582 0.536754 0.155458
v -0.143271 -0.536754 0.082717
v -0.143271 0.536754 0.082717
v -0.162921 -0.536754 -0.028727
v -0.162921 0.536754 -0.028727
v -0.106339 -0.536754 -0.126730
v -0.106339 0.536754 -0.126730
v 0.000000 0.649699 -0.351567
v 0.225983 0.649699 -0.269316
v 0.346226 0.649699 -0.061049
v 0.304466 0.649699 0.175784
v 0.120243 0.649699 0.330365
v -0.120243 0.649699 0.330365
v -0.304466 0.649699 0.175784
v -0.346226 0.649699 -0.061049
v -0.225983 0.649699 -0.269316
v 0.000000 0.799400 -0.361552
v 0.232401 0.799400 -0.276965
v 0.356059 0.799400 -0.062783
v 0.313113 0.799400 0.180776
v 0.123658 0.799400 0.339747
v -0.123658 0.799400 0.339747
v -0.313113 0.799400 0.180776
v -0.356059 0.799400 -0.062783
v -0.232401 0.799400 -0.276965
v 0.259007 0.799400 -0.308673
v 0.000000 0.799400 -0.402944
v 0.396822 0.799400 -0.069970
v 0.348959 0.799400 0.201472
v 0.137815 0.799400 0.378643
v -0.137815 0.799400 0.378643
v -0.348959 0.799400 0.201472
v -0.396822 0.799400 -0.069970
v -0.259007 0.799400 -0.308673
v 0.000000 0.767288 -0.361552
v 0.232401 0.767288 -0.276965
v 0.356059 0.767288 -0.062783
v 0.313113 0.767288 0.180776
v 0.123658 0.767288 0.339747
v -0.123658 0.767288 0.339747
v -0.313113 0.767288 0.180776
v -0.356059 0.767288 -0.062783
v -0.232401 0.767288 -0.276965
vn 0.3420 -0.0000 -0.9397
vn 0.8660 -0.0000 -0.5000
vn 0.9848 -0.0000 0.1736
vn 0.6428 -0.0000 0.7660
vn -0.0000 -0.0000 1.0000
vn -0.6428 -0.0000 0.7660
vn -0.9848 -0.0000 0.1736
vn -0.1855 -0.8401 -0.5098
vn -0.8660 -0.0000 -0.5000
vn -0.3420 -0.0000 -0.9397
vn -0.0000 -1.0000 -0.0000
vn 0.9373 -0.3069 0.1653
vn -0.4698 -0.8401 -0.2712
vn -0.5342 -0.8401 0.0942
vn -0.3487 -0.8401 0.4156
vn -0.0000 -0.8401 0.5425
vn 0.3487 -0.8401 0.4156
vn 0.1855 -0.8401 -0.5098
vn 0.5342 -0.8401 0.0942
vn 0.4698 -0.8401 -0.2712
vn -0.0000 -0.0000 -1.0000
vn -0.9373 -0.3069 0.1653
vn 0.6118 -0.3069 0.7291
vn 0.3255 -0.3069 -0.8943
vn -0.8242 -0.3069 -0.4759
vn -0.0000 -0.3069 0.9517
vn 0.8242 -0.3069 -0.4759
vn -0.3255 -0.3069 -0.8943
vn -0.6118 -0.3069 0.7291
vn -0.0000 1.0000 -0.0000
vn -0.8660 -0.0000 0.5000
vn 0.3420 -0.0000 0.9397
vn 0.6428 -0.0000 -0.7660
vn -0.9848 -0.0000 -0.1736
vn 0.9848 -0.0000 -0.1736
vn -0.6428 -0.0000 -0.7660
vn -0.3420 -0.0000 0.9397
vn 0.8660 -0.0000 0.5000
vt 0.288506 0.535388
vt 0.288506 0.758320
vt 0.360156 0.758320
vt 0.360156 0.535388
vt 0.501708 0.535388
vt 0.501708 0.758320
vt 0.435676 0.758320
vt 0.435676 0.535388
vt 0.360587 0.758320
vt 0.360587 0.535388
vt 0.748728 0.480457
vt 0.748728 0.703390
vt 0.690319 0.703390
vt 0.690319 0.480457
vt 0.614071 0.703390
vt 0.614071 0.480457
vt 0.555662 0.703390
vt 0.555662 0.480457
vt 0.749159 0.480457
vt 0.749159 0.703390
vt 0.824248 0.703390
vt 0.824248 0.480457
vt 0.376455 0.305710
vt 0.327444 0.364119
vt 0.390150 0.472729
vt 0.494304 0.348603
vt 0.890280 0.703390
vt 0.890280 0.480457
vt 0.216857 0.535388
vt 0.216857 0.758320
vt 0.092326 0.754934
vt 0.167415 0.741693
vt 0.216426 0.683284
vt 0.216426 0.607037
vt 0.167415 0.548628
vt 0.092326 0.535388
vt 0.026294 0.573511
vt 0.000216 0.645161
vt 0.026294 0.716810
vt 0.230577 0.034306
vt 0.390150 0.062443
vt 0.407458 0.032464
vt 0.224566 0.000215
vt 0.252355 0.377359
vt 0.230577 0.500866
vt 0.186322 0.339235
vt 0.090251 0.419849
vt 0.160244 0.267586
vt 0.034832 0.267586
vt 0.186322 0.195937
vt 0.090251 0.115323
vt 0.252355 0.157813
vt 0.376455 0.229462
vt 0.494304 0.186569
vt 0.327444 0.171053
vt 0.533932 0.774744
vt 0.533932 0.608108
vt 0.527264 0.608108
vt 0.527264 0.774744
vt 0.063733 0.442100
vt 0.224566 0.534957
vt 0.063733 0.093072
vt 0.526833 0.360443
vt 0.526833 0.174729
vt 0.407458 0.502708
vt 0.000215 0.267586
vt 0.500625 0.350904
vt 0.500625 0.184268
vt 0.393514 0.056617
vt 0.229409 0.027681
vt 0.085098 0.110999
vt 0.028105 0.267586
vt 0.085098 0.424173
vt 0.229409 0.507491
vt 0.393514 0.478555
vt 0.892673 0.451090
vt 0.728568 0.480026
vt 0.584257 0.396708
vt 0.527264 0.240121
vt 0.584257 0.083534
vt 0.728568 0.000215
vt 0.892673 0.029152
vt 0.999784 0.156802
vt 0.999784 0.323439
vt 0.548131 0.624768
vt 0.548131 0.480457
vt 0.541463 0.480457
vt 0.541463 0.624768
vt 0.541032 0.637044
vt 0.541032 0.793631
vt 0.534363 0.793631
vt 0.534363 0.637044
vt 0.533932 0.902395
vt 0.527264 0.902395
vt 0.548131 0.788873
vt 0.541463 0.788873
vt 0.555231 0.624768
vt 0.555231 0.788873
vt 0.548562 0.788873
vt 0.548562 0.624768
vt 0.533932 0.480457
vt 0.527264 0.480457
vt 0.541032 0.480457
vt 0.534363 0.480457
vt 0.555231 0.480457
vt 0.548562 0.480457
s 0
usemtl Material.001
f 1/1/1 2/2/1 4/3/1 3/4/1
f 3/5/2 4/6/2 6/7/2 5/8/2
f 5/8/3 6/7/3 8/9/3 7/10/3
f 7/11/4 8/12/4 10/13/4 9/14/4
f 9/14/5 10/13/5 12/15/5 11/16/5
f 11/16/6 12/15/6 14/17/6 13/18/6
f 13/19/7 14/20/7 16/21/7 15/22/7
f 2/23/8 18/24/8 27/25/8 19/26/8
f 15/22/9 16/21/9 18/27/9 17/28/9
f 17/29/10 18/30/10 2/2/10 1/1/10
f 1/31/11 3/32/11 5/33/11 7/34/11 9/35/11 11/36/11 13/37/11 15/38/11 17/39/11
f 22/40/12 21/41/12 39/42/12 40/43/12
f 18/24/13 16/44/13 26/45/13 27/25/13
f 16/44/14 14/46/14 25/47/14 26/45/14
f 14/46/15 12/48/15 24/49/15 25/47/15
f 12/48/16 10/50/16 23/51/16 24/49/16
f 10/50/17 8/52/17 22/40/17 23/51/17
f 4/53/18 2/23/18 19/26/18 20/54/18
f 8/52/19 6/55/19 21/41/19 22/40/19
f 6/55/20 4/53/20 20/54/20 21/41/20
f 33/56/21 32/57/21 50/58/21 51/59/21
f 26/45/22 25/47/22 43/60/22 44/61/22
f 23/51/23 22/40/23 40/43/23 41/62/23
f 20/54/24 19/26/24 38/63/24 37/64/24
f 27/25/25 26/45/25 44/61/25 45/65/25
f 24/49/26 23/51/26 41/62/26 42/66/26
f 21/41/27 20/54/27 37/64/27 39/42/27
f 19/26/28 27/25/28 45/65/28 38/63/28
f 25/47/29 24/49/29 42/66/29 43/60/29
f 28/67/30 29/68/30 37/64/30 38/63/30
f 29/68/30 30/69/30 39/42/30 37/64/30
f 30/69/30 31/70/30 40/43/30 39/42/30
f 31/70/30 32/71/30 41/62/30 40/43/30
f 32/71/30 33/72/30 42/66/30 41/62/30
f 33/72/30 34/73/30 43/60/30 42/66/30
f 34/73/30 35/74/30 44/61/30 43/60/30
f 35/74/30 36/75/30 45/65/30 44/61/30
f 36/75/30 28/67/30 38/63/30 45/65/30
f 47/76/30 46/77/30 54/78/30 53/79/30 52/80/30 51/81/30 50/82/30 49/83/30 48/84/30
f 30/85/31 29/86/31 47/87/31 48/88/31
f 28/89/32 36/90/32 54/91/32 46/92/32
f 34/93/33 33/56/33 51/59/33 52/94/33
f 31/95/34 30/85/34 48/88/34 49/96/34
f 35/97/35 34/98/35 52/99/35 53/100/35
f 32/57/36 31/101/36 49/102/36 50/58/36
f 29/103/37 28/89/37 46/92/37 47/104/37
f 36/105/38 35/97/38 53/100/38 54/106/38
