# Blender 5.1.2
# www.blender.org
mtllib Untitled.mtl
o Fence_Cube.057
v -2.945063 -0.010823 0.082752
v -2.945063 1.086240 0.082752
v -2.945063 -0.010823 -0.082754
v -2.945063 1.086240 -0.082754
v -2.777727 -0.010823 0.082752
v -2.777727 1.086240 0.082752
v -2.777727 -0.010823 -0.082754
v -2.777727 1.086240 -0.082754
v -2.905715 0.404853 0.035311
v -2.905715 0.404853 -0.035314
v -2.905715 0.195827 0.035311
v -2.905715 0.195827 -0.035314
v -2.905715 0.869968 0.035311
v -2.905715 0.869968 -0.035314
v -2.905715 0.660942 0.035311
v -2.905715 0.660942 -0.035314
v 2.945063 -0.010823 0.082754
v 2.945063 1.086240 0.082754
v 2.945063 -0.010823 -0.082752
v 2.945063 1.086240 -0.082752
v 2.777726 -0.010823 0.082754
v 2.777726 1.086240 0.082754
v 2.777726 -0.010823 -0.082752
v 2.777726 1.086240 -0.082752
v 2.941604 0.404853 0.035314
v -2.221115 0.226166 0.050156
v 2.941604 0.404853 -0.035311
v -2.221115 0.226166 -0.050156
v 2.941604 0.195827 0.035314
v -2.221115 0.017140 0.050156
v 2.941604 0.195827 -0.035311
v -2.221115 0.017140 -0.050156
v 2.941604 0.869968 0.035314
v 2.941604 0.869968 -0.035311
v 2.941604 0.660942 0.035314
v 2.941604 0.660942 -0.035311
v 2.419585 0.959668 0.038282
v 2.331233 0.923645 0.041251
v 2.253611 0.959668 0.044219
v 2.170624 0.959668 0.047188
v 2.170624 0.959668 -0.047186
v 2.253611 0.959668 -0.044218
v 2.331233 0.923645 -0.041249
v 2.419585 0.959668 -0.038280
v 2.179821 0.769802 -0.047186
v 2.253611 0.750642 -0.044218
v 2.336598 0.750642 -0.041249
v 2.419585 0.750642 -0.038280
v 2.179821 0.769802 0.047188
v 2.253611 0.750642 0.044219
v 2.336598 0.750642 0.041251
v 2.419585 0.750642 0.038282
v 1.890423 0.312876 0.039024
v 1.890423 0.312876 -0.039023
v 1.890423 0.103850 -0.039023
v 1.890423 0.103850 0.039024
v -2.272204 0.869968 0.037786
v -2.186696 0.869968 0.040260
v -2.101188 0.869968 0.042734
v -2.015680 0.811396 0.045208
v -1.930172 0.869968 0.047681
v -1.930172 0.869968 -0.047682
v -2.015680 0.811396 -0.045208
v -2.101188 0.869968 -0.042735
v -2.186696 0.869968 -0.040261
v -2.272204 0.869968 -0.037787
v -1.930172 0.682906 -0.047682
v -2.015680 0.660942 -0.045208
v -2.101188 0.660942 -0.042735
v -2.186696 0.714632 -0.040261
v -2.272204 0.660942 -0.037787
v -1.930172 0.682906 0.047681
v -2.015680 0.660942 0.045208
v -2.101188 0.660942 0.042734
v -2.186696 0.714632 0.040260
v -2.272204 0.660942 0.037786
v -2.605353 0.404853 0.037008
v -2.605353 0.404853 -0.037010
v -2.605353 0.195827 -0.037010
v -2.605353 0.195827 0.037008
v -2.674128 0.348361 -0.036622
v -2.674128 0.195827 -0.036622
v -2.674128 0.195827 0.036620
v -2.674128 0.348361 0.036620
vn -1.0000 -0.0000 -0.0000
vn -0.0000 -0.0000 -1.0000
vn 1.0000 -0.0000 -0.0000
vn -0.0000 -0.0000 1.0000
vn -0.0000 -1.0000 -0.0000
vn -0.0000 1.0000 -0.0000
vn 0.4217 0.9067 -0.0000
vn -0.0217 -0.0000 -0.9998
vn -0.0342 -0.0000 -0.9994
vn -0.2184 -0.9759 -0.0000
vn -0.4217 -0.9067 -0.0000
vn -0.0217 -0.0000 0.9998
vn -0.0342 -0.0000 0.9994
vn 0.0057 -0.0000 1.0000
vn 0.0345 0.0005 0.9994
vn 0.0358 0.0005 0.9994
vn 0.0376 0.0007 0.9993
vn 0.0375 0.0007 0.9993
vn 0.0380 0.0009 0.9993
vn -0.1694 -0.9856 -0.0000
vn -0.0839 -0.9965 -0.0000
vn -0.2513 -0.9679 -0.0000
vn 0.0057 -0.0000 -1.0000
vn 0.0345 0.0005 -0.9994
vn 0.0358 0.0005 -0.9994
vn 0.0375 0.0007 -0.9993
vn 0.0376 0.0007 -0.9993
vn 0.0379 0.0009 -0.9993
vn 0.1694 0.9856 -0.0000
vn -0.3775 0.9260 -0.0000
vn 0.4210 0.9071 -0.0000
vn 0.0035 -0.0000 1.0000
vn 0.0872 -0.9962 -0.0000
vn 0.0035 -0.0000 -1.0000
vn -0.0872 0.9962 -0.0000
vn -0.0039 -0.0000 1.0000
vn -0.0289 -0.0000 0.9996
vn 0.5318 -0.8469 -0.0000
vn -0.5318 -0.8469 -0.0000
vn 0.2488 -0.9686 -0.0000
vn -0.0039 -0.0000 -1.0000
vn -0.0289 -0.0000 -0.9996
vn 0.5651 0.8250 -0.0000
vn -0.5651 0.8250 -0.0000
vn -0.0056 -0.0000 1.0000
vn -0.0056 -0.0000 -1.0000
vn -0.6347 0.7727 -0.0000
vn 0.2370 0.9715 -0.0000
vn -0.0057 -0.0000 1.0000
s 1
usemtl Brown
f 1//1 2//1 4//1 3//1
f 3//2 4//2 8//2 7//2
f 7//3 8//3 6//3 5//3
f 5//4 6//4 2//4 1//4
f 3//5 7//5 5//5 1//5
f 8//6 4//6 2//6 6//6
f 77//7 26//7 28//7 78//7
f 78//8 28//9 32//9 79//8
f 79//10 32//11 30//11 80//10
f 80//12 30//13 26//13 77//12
f 10//1 12//1 11//1 9//1
f 14//1 16//1 15//1 13//1
f 17//3 19//3 20//3 18//3
f 19//2 23//2 24//2 20//2
f 23//1 21//1 22//1 24//1
f 21//4 17//4 18//4 22//4
f 19//5 17//5 21//5 23//5
f 24//6 22//6 18//6 20//6
f 27//3 25//3 29//3 31//3
f 34//3 33//3 35//3 36//3
f 35//14 33//14 37//14 52//14
f 52//15 37//15 38//16 51//16
f 51//16 38//16 39//17 50//18
f 50//18 39//17 40//19 49//19
f 36//20 35//20 52//21 48//21
f 48//21 52//21 51//5 47//5
f 47//5 51//5 50//5 46//5
f 46//22 50//22 49//22 45//22
f 34//23 36//23 48//23 44//23
f 44//24 48//24 47//25 43//25
f 43//25 47//25 46//26 42//27
f 42//27 46//26 45//28 41//28
f 33//29 34//29 44//29 37//29
f 37//30 44//30 43//30 38//30
f 38//31 43//31 42//31 39//31
f 39//6 42//6 41//6 40//6
f 29//32 25//32 53//32 56//32
f 31//33 29//33 56//33 55//33
f 27//34 31//34 55//34 54//34
f 25//35 27//35 54//35 53//35
f 15//36 76//36 57//36 13//36
f 76//37 75//37 58//37 57//37
f 75//37 74//37 59//37 58//37
f 74//37 73//37 60//37 59//37
f 73//37 72//37 61//37 60//37
f 16//5 71//5 76//5 15//5
f 71//38 70//38 75//38 76//38
f 70//39 69//39 74//39 75//39
f 69//5 68//5 73//5 74//5
f 68//40 67//40 72//40 73//40
f 14//41 66//41 71//41 16//41
f 66//42 65//42 70//42 71//42
f 65//42 64//42 69//42 70//42
f 64//42 63//42 68//42 69//42
f 63//42 62//42 67//42 68//42
f 13//6 57//6 66//6 14//6
f 57//6 58//6 65//6 66//6
f 58//6 59//6 64//6 65//6
f 59//43 60//43 63//43 64//43
f 60//44 61//44 62//44 63//44
f 83//45 80//12 77//12 84//45
f 82//5 79//10 80//10 83//5
f 81//46 78//8 79//8 82//46
f 84//47 77//47 78//47 81//47
f 9//48 84//48 81//48 10//48
f 10//46 81//46 82//46 12//46
f 12//5 82//5 83//5 11//5
f 11//49 83//45 84//45 9//49
