# Blender 5.1.2
# www.blender.org
mtllib Untitled.mtl
o Cube
v 0.301243 0.438202 0.298944
v 0.205840 0.438202 0.437500
v 0.288462 0.438202 0.368222
v 0.253542 0.438202 0.418937
v 0.205840 0.473023 0.437500
v 0.301243 0.473023 0.298944
v 0.253542 0.473023 0.418937
v 0.288462 0.473023 0.368222
v 0.218267 0.438202 -0.437500
v 0.301243 0.438202 -0.316992
v 0.259755 0.438202 -0.421355
v 0.290127 0.438202 -0.377246
v 0.301243 0.473023 -0.316992
v 0.218267 0.473023 -0.437500
v 0.290127 0.473023 -0.377246
v 0.259755 0.473023 -0.421355
v -0.301243 0.438202 -0.315236
v -0.217058 0.438202 -0.437500
v -0.289965 0.438202 -0.376368
v -0.259151 0.438202 -0.421120
v -0.217058 0.473023 -0.437500
v -0.301243 0.473023 -0.315236
v -0.259151 0.473023 -0.421120
v -0.289965 0.473023 -0.376368
v -0.210050 0.438202 0.437500
v -0.301243 0.438202 0.305058
v -0.255647 0.438202 0.419756
v -0.289026 0.438202 0.371279
v -0.301243 0.473023 0.305058
v -0.210050 0.473023 0.437500
v -0.289026 0.473023 0.371279
v -0.255647 0.473023 0.419756
vn 0.3627 -0.0000 0.9319
vn 0.8236 -0.0000 0.5671
vn 0.9834 -0.0000 0.1814
vn 0.9834 -0.0000 -0.1814
vn 0.8236 -0.0000 -0.5671
vn 0.3627 -0.0000 -0.9319
vn 1.0000 -0.0000 -0.0000
vn -0.3627 -0.0000 -0.9319
vn -0.8236 -0.0000 -0.5671
vn -0.9834 -0.0000 -0.1814
vn -0.0000 -0.0000 -1.0000
vn -0.3627 -0.0000 0.9319
vn -0.8236 -0.0000 0.5671
vn -0.9834 -0.0000 0.1814
vn -1.0000 -0.0000 -0.0000
vn -0.0000 -0.0000 1.0000
vn -0.0000 -1.0000 -0.0000
vn -0.0000 1.0000 -0.0000
vt 0.921571 0.292929
vt 0.838952 0.292929
vt 0.840924 0.288456
vt 0.919598 0.288456
vt 0.842368 0.279124
vt 0.918155 0.279124
vt 0.842896 0.273207
vt 0.917626 0.273207
vt 0.917626 0.220602
vt 0.842896 0.220602
vt 0.842446 0.215466
vt 0.918076 0.215466
vt 0.841190 0.207348
vt 0.919332 0.207348
vt 0.839465 0.203449
vt 0.921057 0.203449
vt 0.918182 0.146578
vt 0.842340 0.146578
vt 0.842618 0.141079
vt 0.917904 0.141079
vt 0.842896 0.130359
vt 0.917626 0.130359
vt 0.842896 0.125138
vt 0.917626 0.125138
vt 0.842187 0.347750
vt 0.918336 0.347750
vt 0.917626 0.359770
vt 0.842896 0.359770
vt 0.842896 0.060850
vt 0.917626 0.060850
vt 0.917626 0.066506
vt 0.842896 0.066506
vt 0.917626 0.072161
vt 0.842896 0.072161
vt 0.768166 0.220752
vt 0.769669 0.215474
vt 0.773896 0.211246
vt 0.779720 0.209198
vt 0.780896 0.286459
vt 0.774463 0.284123
vt 0.769805 0.279465
vt 0.768166 0.273729
vt 0.859154 0.103155
vt 0.927397 0.121329
vt 0.977460 0.171180
vt 0.995926 0.239351
vt 0.997973 0.856068
vt 0.979634 0.925286
vt 0.929132 0.976012
vt 0.860000 0.994653
vt 0.157994 0.995680
vt 0.082993 0.975706
vt 0.027973 0.920919
vt 0.007677 0.845997
vt 0.005722 0.261226
vt 0.026505 0.182784
vt 0.083737 0.125299
vt 0.162080 0.104174
s 0
usemtl Material.001
f 5/1/1 2/2/1 4/3/1 7/4/1
f 7/4/2 4/3/2 3/5/2 8/6/2
f 8/6/3 3/5/3 1/7/3 6/8/3
f 13/9/4 10/10/4 12/11/4 15/12/4
f 15/12/5 12/11/5 11/13/5 16/14/5
f 16/14/6 11/13/6 9/15/6 14/16/6
f 10/10/7 13/9/7 6/8/7 1/7/7
f 21/17/8 18/18/8 20/19/8 23/20/8
f 23/20/9 20/19/9 19/21/9 24/22/9
f 24/22/10 19/21/10 17/23/10 22/24/10
f 18/18/11 21/17/11 14/16/11 9/15/11
f 25/25/12 30/26/12 32/27/12 27/28/12
f 27/29/13 32/30/13 31/31/13 28/32/13
f 28/32/14 31/31/14 29/33/14 26/34/14
f 26/34/15 29/33/15 22/24/15 17/23/15
f 2/2/16 5/1/16 30/26/16 25/25/16
f 17/35/17 19/36/17 20/37/17 18/38/17 9/15/17 11/13/17 12/11/17 10/10/17 1/7/17 3/5/17 4/3/17 2/2/17 25/39/17 27/40/17 28/41/17 26/42/17
f 13/43/18 15/44/18 16/45/18 14/46/18 21/47/18 23/48/18 24/49/18 22/50/18 29/51/18 31/52/18 32/53/18 30/54/18 5/55/18 7/56/18 8/57/18 6/58/18
