# Blender 5.1.2
# www.blender.org
mtllib Untitled.mtl
o Cube
v 3.796112 -0.018157 -6.035994
v 0.000541 10.819742 -6.035994
v 3.796112 -0.018157 -6.291973
v 0.000541 10.819742 -6.291973
v 4.052091 -0.018157 -6.035994
v 0.000000 11.142609 -6.035994
v 4.052091 -0.018157 -6.291973
v 0.000000 11.142609 -6.291973
v -3.796112 -0.018157 -6.035994
v -0.000541 10.819742 -6.035994
v -3.796112 -0.018157 -6.291973
v -0.000541 10.819742 -6.291973
v -4.052091 -0.018157 -6.035994
v -4.052091 -0.018157 -6.291973
v 3.796112 -0.018157 6.035994
v 0.000541 10.819742 6.035994
v 3.796112 -0.018157 6.291973
v 0.000541 10.819742 6.291973
v 4.052091 -0.018157 6.035994
v 0.000000 11.142609 6.035994
v 4.052091 -0.018157 6.291973
v 0.000000 11.142609 6.291973
v -3.796112 -0.018157 6.035994
v -0.000541 10.819742 6.035994
v -3.796112 -0.018157 6.291973
v -0.000541 10.819742 6.291973
v -4.052091 -0.018157 6.035994
v -4.052091 -0.018157 6.291973
vn -0.9438 -0.3305 -0.0000
vn -0.0000 -0.0000 -1.0000
vn 0.9400 0.3413 -0.0000
vn -0.0000 -0.0000 1.0000
vn -0.0000 -1.0000 -0.0000
vn -1.0000 -0.0017 -0.0000
vn 0.9438 -0.3305 -0.0000
vn -0.9400 0.3413 -0.0000
vn 1.0000 -0.0017 -0.0000
vt 0.927556 0.427822
vt 0.951611 0.427822
vt 0.951611 0.512244
vt 0.927556 0.512244
vt 0.951611 0.596667
vt 0.927556 0.596667
vt 0.951611 0.681089
vt 0.927556 0.681089
vt 0.951611 0.765511
vt 0.927556 0.765511
vt 0.903501 0.596667
vt 0.903501 0.681089
vt 0.975666 0.596667
vt 0.975666 0.681089
s 0
usemtl Material
f 1/1/1 2/2/1 4/3/1 3/4/1
f 3/4/2 4/3/2 8/5/2 7/6/2
f 7/6/3 8/5/3 6/7/3 5/8/3
f 5/8/4 6/7/4 2/9/4 1/10/4
f 3/11/5 7/6/5 5/8/5 1/12/5
f 8/5/6 4/13/6 2/14/6 6/7/6
f 9/1/7 11/4/7 12/3/7 10/2/7
f 11/4/2 14/6/2 8/5/2 12/3/2
f 14/6/8 13/8/8 6/7/8 8/5/8
f 13/8/4 9/10/4 10/9/4 6/7/4
f 11/11/5 9/12/5 13/8/5 14/6/5
f 8/5/9 6/7/9 10/14/9 12/13/9
f 15/1/1 17/4/1 18/3/1 16/2/1
f 17/4/4 21/6/4 22/5/4 18/3/4
f 21/6/3 19/8/3 20/7/3 22/5/3
f 19/8/2 15/10/2 16/9/2 20/7/2
f 17/11/5 15/12/5 19/8/5 21/6/5
f 22/5/6 20/7/6 16/14/6 18/13/6
f 23/1/7 24/2/7 26/3/7 25/4/7
f 25/4/4 26/3/4 22/5/4 28/6/4
f 28/6/8 22/5/8 20/7/8 27/8/8
f 27/8/2 20/7/2 24/9/2 23/10/2
f 25/11/5 28/6/5 27/8/5 23/12/5
f 22/5/9 26/13/9 24/14/9 20/7/9
o Cube.001
v -0.057360 10.848147 6.210292
v -0.057360 10.962869 6.210292
v -0.057360 10.848147 -6.210292
v -0.057360 10.962869 -6.210292
v 0.057360 10.848147 6.210292
v 0.057360 10.962869 6.210292
v 0.057360 10.848147 -6.210292
v 0.057360 10.962869 -6.210292
vn -1.0000 -0.0000 -0.0000
vn -0.0000 -0.0000 -1.0000
vn 1.0000 -0.0000 -0.0000
vn -0.0000 -0.0000 1.0000
vn -0.0000 -1.0000 -0.0000
vn -0.0000 1.0000 -0.0000
vt 0.915130 0.546778
vt 0.930704 0.546778
vt 0.930704 0.650056
vt 0.915130 0.650056
vt 0.930704 0.753333
vt 0.915130 0.753333
vt 0.930704 0.856611
vt 0.915130 0.856611
vt 0.930704 0.959888
vt 0.915130 0.959888
vt 0.899556 0.753333
vt 0.899556 0.856611
vt 0.946277 0.753333
vt 0.946277 0.856611
s 0
usemtl Material
f 29/15/10 30/16/10 32/17/10 31/18/10
f 31/18/11 32/17/11 36/19/11 35/20/11
f 35/20/12 36/19/12 34/21/12 33/22/12
f 33/22/13 34/21/13 30/23/13 29/24/13
f 31/25/14 35/20/14 33/22/14 29/26/14
f 36/19/15 32/27/15 30/28/15 34/21/15
o Cube.002
v -1.776464 -0.062692 4.169928
v -1.776464 0.202343 4.223728
v -1.776464 1.641159 -4.223728
v -1.776464 1.906194 -4.169928
v 1.776464 -0.062692 4.169928
v 1.776464 0.202343 4.223728
v 1.776464 1.641159 -4.223728
v 1.776464 1.906194 -4.169928
v 1.510239 1.641159 -4.223728
v 1.510239 1.906194 -4.169928
v 1.510239 -0.062692 4.169928
v 1.510239 0.202343 4.223728
v 1.776464 3.486407 4.890369
v 1.776464 5.190258 -3.503287
v 1.510239 5.190258 -3.503287
v 1.510239 3.486407 4.890369
vn -1.0000 -0.0000 -0.0000
vn -0.0000 0.1989 -0.9800
vn 1.0000 -0.0000 -0.0000
vn -0.0000 -0.1989 0.9800
vn -0.0000 -0.9800 -0.1989
vn -0.0000 0.9800 0.1989
vt 0.467332 0.121708
vt 0.473670 0.109288
vt 0.473670 0.812917
vt 0.461278 0.804930
vt 0.230525 0.881466
vt 0.216780 0.890712
vt 0.209811 0.876107
vt 0.222287 0.868461
vt 0.217341 0.172582
vt 0.223545 0.185174
vt 0.230525 0.176383
vt 0.224570 0.162742
vt 0.350619 0.147201
vt 0.346435 0.161771
vt 0.461147 0.828243
vt 0.065132 0.805580
vt 0.066391 0.122293
vt 0.447898 0.825496
vt 0.058152 0.814371
vt 0.058152 0.109288
s 0
usemtl Material
f 37/29/16 38/30/16 40/31/16 39/32/16
f 45/33/17 46/34/17 44/35/17 43/36/17
f 43/36/18 44/35/18 42/37/18 41/38/18
f 47/39/19 48/40/19 38/41/19 37/42/19
f 45/33/20 43/36/20 41/38/20 47/39/20
f 46/34/21 40/43/21 38/41/21 48/40/21
f 42/37/18 44/35/18 50/44/18 49/45/18
f 39/46/20 45/33/20 47/39/20 37/42/20
f 41/38/19 42/37/19 48/40/19 47/39/19
f 39/46/17 40/43/17 46/34/17 45/33/17
f 50/44/21 51/47/21 52/48/21 49/45/21
f 48/40/19 42/37/19 49/45/19 52/48/19
f 44/35/17 46/34/17 51/47/17 50/44/17
f 46/34/16 48/40/16 52/48/16 51/47/16
o Torus
v 1.682218 3.850233 -3.443178
v 1.639344 3.630128 -3.238347
v 1.569971 3.371279 -3.386196
v 1.569971 3.431406 -3.682403
v 1.639344 3.727417 -3.717619
v 0.174617 3.662781 -3.481229
v 0.298069 3.463356 -3.272201
v 0.497818 3.237970 -3.413257
v 0.497818 3.298097 -3.709463
v 0.298069 3.560645 -3.751472
v -0.809400 2.835840 -3.649092
v -0.577387 2.727648 -3.421544
v -0.201981 2.649878 -3.532635
v -0.201981 2.710006 -3.828842
v -0.577387 2.824936 -3.900816
v -0.820582 1.731786 -3.873207
v -0.580842 1.676414 -3.634937
v -0.192935 1.684108 -3.728680
v -0.192935 1.744236 -4.024886
v -0.580842 1.773703 -4.114209
v 1.682218 2.275883 4.312518
v 1.639344 2.153067 4.038076
v 1.569971 1.857057 4.073293
v 1.569971 1.796929 4.369499
v 1.639344 2.055778 4.517348
v 0.174617 2.088431 4.274466
v 0.298069 1.986295 4.004223
v 0.497818 1.723747 4.046232
v 0.497818 1.663620 4.342438
v 0.298069 1.889006 4.483495
v -0.809400 1.261490 4.106603
v -0.577387 1.250586 3.854879
v -0.201981 1.135656 3.926854
v -0.201981 1.075528 4.223060
v -0.577387 1.153298 4.334151
v -0.820582 0.157437 3.882488
v -0.580842 0.199353 3.641486
v -0.192935 0.169886 3.730809
v -0.192935 0.109758 4.027016
v -0.580842 0.102064 4.120759
vn -0.1037 0.6883 0.7179
vn 0.0409 -0.5038 0.8629
vn 0.1259 -0.9722 -0.1974
vn 0.0409 -0.1275 -0.9910
vn -0.1037 0.9138 -0.3927
vn -0.5068 0.4543 0.7327
vn 0.1829 -0.4000 0.8981
vn 0.6510 -0.7439 -0.1510
vn 0.1829 -0.0181 -0.9830
vn -0.5068 0.7040 -0.4976
vn -0.7194 -0.1335 0.6817
vn 0.2378 -0.1926 0.9520
vn 1.0000 0.0090 0.0018
vn 0.2378 0.1939 -0.9518
vn -0.7194 0.1429 -0.6798
vt 0.176229 0.540031
vt 0.220708 0.540031
vt 0.220708 0.620094
vt 0.176229 0.620094
vt 0.220708 0.700156
vt 0.176229 0.700156
vt 0.176229 0.299844
vt 0.220708 0.299844
vt 0.220708 0.379906
vt 0.176229 0.379906
vt 0.220708 0.459969
vt 0.176229 0.459969
vt 0.265187 0.540031
vt 0.265187 0.620094
vt 0.265187 0.700156
vt 0.265187 0.299844
vt 0.265187 0.379906
vt 0.265187 0.459969
vt 0.118146 0.540031
vt 0.162625 0.540031
vt 0.162625 0.620094
vt 0.118146 0.620094
vt 0.162625 0.700156
vt 0.118146 0.700156
vt 0.118146 0.299844
vt 0.162625 0.299844
vt 0.162625 0.379906
vt 0.118146 0.379906
vt 0.162625 0.459969
vt 0.118146 0.459969
s 0
usemtl Material
f 53/49/22 58/50/22 59/51/22 54/52/22
f 54/52/23 59/51/23 60/53/23 55/54/23
f 55/55/24 60/56/24 61/57/24 56/58/24
f 56/58/25 61/57/25 62/59/25 57/60/25
f 57/60/26 62/59/26 58/50/26 53/49/26
f 58/50/27 63/61/27 64/62/27 59/51/27
f 59/51/28 64/62/28 65/63/28 60/53/28
f 60/56/29 65/64/29 66/65/29 61/57/29
f 61/57/30 66/65/30 67/66/30 62/59/30
f 62/59/31 67/66/31 63/61/31 58/50/31
f 63/67/32 68/68/32 69/69/32 64/70/32
f 64/70/33 69/69/33 70/71/33 65/72/33
f 65/73/34 70/74/34 71/75/34 66/76/34
f 66/76/35 71/75/35 72/77/35 67/78/35
f 67/78/36 72/77/36 68/68/36 63/67/36
f 73/49/26 74/52/26 79/51/26 78/50/26
f 74/52/25 75/54/25 80/53/25 79/51/25
f 75/55/24 76/58/24 81/57/24 80/56/24
f 76/58/23 77/60/23 82/59/23 81/57/23
f 77/60/22 73/49/22 78/50/22 82/59/22
f 78/50/31 79/51/31 84/62/31 83/61/31
f 79/51/30 80/53/30 85/63/30 84/62/30
f 80/56/29 81/57/29 86/65/29 85/64/29
f 81/57/28 82/59/28 87/66/28 86/65/28
f 82/59/27 78/50/27 83/61/27 87/66/27
f 83/67/36 84/70/36 89/69/36 88/68/36
f 84/70/35 85/72/35 90/71/35 89/69/35
f 85/73/34 86/76/34 91/75/34 90/74/34
f 86/76/33 87/78/33 92/77/33 91/75/33
f 87/78/32 83/67/32 88/68/32 92/77/32
o Plane
v 0.020714 10.930061 -3.394141
v 0.020715 3.384238 -3.394141
v 0.020714 10.930061 -3.702913
v 0.020715 3.384238 -3.702913
vn 1.0000 -0.0000 -0.0000
vt 0.672743 0.004252
vt 0.672743 0.987811
vt 0.656560 0.987811
vt 0.656560 0.004252
s 0
usemtl Material
f 93/79/37 94/80/37 96/81/37 95/82/37
