# Blender 5.1.2
# www.blender.org
mtllib Untitled.mtl
o Cube
v -0.363775 -0.051205 0.900000
v -0.363775 0.048795 1.000000
v -0.404194 0.048795 0.900000
v -0.363775 1.848795 1.000000
v -0.363775 1.948795 0.900000
v -0.404194 1.848795 0.900000
v -0.363775 -0.051205 -0.900000
v -0.404194 0.048795 -0.900000
v -0.363775 0.048795 -1.000000
v -0.363775 1.948795 -0.900000
v -0.363775 1.848795 -1.000000
v -0.404194 1.848795 -0.900000
v 0.363775 -0.051205 0.900000
v 0.404194 0.048795 0.900000
v 0.363775 0.048795 1.000000
v 0.363775 1.948795 0.900000
v 0.363775 1.848795 1.000000
v 0.404194 1.848795 0.900000
v 0.363775 -0.051205 -0.900000
v 0.363775 0.048795 -1.000000
v 0.404194 0.048795 -0.900000
v 0.363775 1.948795 -0.900000
v 0.404194 1.848795 -0.900000
v 0.363775 1.848795 -1.000000
vn -0.8682 -0.3509 0.3509
vn -0.8682 0.3509 0.3509
vn -0.8682 -0.3509 -0.3509
vn -0.8682 0.3509 -0.3509
vn 0.8682 -0.3509 0.3509
vn 0.8682 0.3509 0.3509
vn 0.8682 -0.3509 -0.3509
vn 0.8682 0.3509 -0.3509
vn -0.9271 -0.3747 -0.0000
vn -0.9271 -0.0000 0.3747
vn -0.9271 0.3747 -0.0000
vn -0.9271 -0.0000 -0.3747
vn -0.0000 -0.7071 -0.7071
vn -0.0000 0.7071 -0.7071
vn 0.9271 -0.0000 -0.3747
vn 0.9271 -0.3747 -0.0000
vn 0.9271 0.3747 -0.0000
vn 0.9271 -0.0000 0.3747
vn -0.0000 -0.7071 0.7071
vn -0.0000 0.7071 0.7071
vn -0.0000 -1.0000 -0.0000
vn -1.0000 -0.0000 -0.0000
vn -0.0000 -0.0000 1.0000
vn -0.0000 1.0000 -0.0000
vn -0.0000 -0.0000 -1.0000
vn 1.0000 -0.0000 -0.0000
vt 0.724632 0.696730
vt 0.729842 0.696730
vt 0.729843 0.701941
vt 0.927855 0.597724
vt 0.927855 0.592513
vt 0.933066 0.592513
vt 0.724632 0.387552
vt 0.729842 0.384078
vt 0.729842 0.393197
vt 0.927855 0.498717
vt 0.927855 0.493506
vt 0.933066 0.498717
vt 0.034361 0.582095
vt 0.034361 0.601812
vt 0.013585 0.601812
vt 0.834060 0.592513
vt 0.830586 0.599461
vt 0.828849 0.592513
vt 0.408325 0.582095
vt 0.429101 0.601812
vt 0.408325 0.601812
vt 0.834060 0.498717
vt 0.828849 0.498717
vt 0.830586 0.491770
vt 0.724632 0.290283
vt 0.729842 0.290283
vt 0.823638 0.696730
vt 0.823638 0.701941
vt 0.823638 0.394500
vt 0.823638 0.384078
vt 0.722026 0.493506
vt 0.729842 0.488296
vt 0.408325 0.956725
vt 0.429101 0.956725
vt 0.013585 0.956725
vt 0.034361 0.956725
vt 0.722026 0.597724
vt 0.729842 0.602935
vt 0.625625 0.498717
vt 0.625625 0.592513
vt 0.823638 0.290283
s 0
usemtl Material.001
f 1/1/1 2/2/1 3/3/1
f 4/4/2 5/5/2 6/6/2
f 7/7/3 8/8/3 9/9/3
f 10/10/4 11/11/4 12/12/4
f 13/13/5 14/14/5 15/15/5
f 16/16/6 17/17/6 18/18/6
f 19/19/7 20/20/7 21/21/7
f 22/22/8 23/23/8 24/24/8
f 7/7/9 1/25/9 3/26/9 8/8/9
f 2/2/10 4/27/10 6/28/10 3/3/10
f 5/5/11 10/10/11 12/12/11 6/6/11
f 11/29/12 9/9/12 8/8/12 12/30/12
f 19/31/13 7/7/13 9/9/13 20/32/13
f 10/10/14 22/22/14 24/24/14 11/11/14
f 23/33/15 21/21/15 20/20/15 24/34/15
f 13/13/16 19/19/16 21/21/16 14/14/16
f 22/22/17 16/16/17 18/18/17 23/23/17
f 17/35/18 15/15/18 14/14/18 18/36/18
f 1/1/19 13/37/19 15/38/19 2/2/19
f 16/16/20 5/5/20 4/4/20 17/17/20
f 7/39/21 19/31/21 13/37/21 1/40/21
f 3/26/22 6/41/22 12/30/22 8/8/22
f 15/38/23 17/17/23 4/27/23 2/2/23
f 22/22/24 10/10/24 5/5/24 16/16/24
f 9/9/25 11/29/25 24/24/25 20/32/25
f 21/21/26 23/33/26 18/36/26 14/14/26
