# Blender 5.1.2
# www.blender.org
mtllib Untitled.mtl
o Cube
v -0.146851 -2.306859 2.306859
v -0.146851 2.306859 2.306859
v -0.146851 -2.306859 -2.306859
v -0.146851 2.306859 -2.306859
v 0.146851 -2.306859 2.306859
v 0.146851 2.306859 2.306859
v 0.146851 -2.306859 -2.306859
v 0.146851 2.306859 -2.306859
v -0.140522 -2.207428 -2.207428
v -0.140522 -2.207428 2.207428
v -0.140522 2.207428 2.207428
v -0.140522 2.207428 -2.207428
v 0.140522 -2.207428 -2.207428
v 0.140522 2.207428 -2.207428
v 0.140522 -2.207428 2.207428
v 0.140522 2.207428 2.207428
v 0.000000 -2.207428 -2.207428
v 0.000000 2.207428 -2.207428
v 0.000000 -2.207428 2.207428
v 0.000000 2.207428 2.207428
v 0.000000 1.178131 1.096393
v 0.000000 -1.557686 -1.791814
v 0.000000 -1.042653 1.207171
vn -0.0000 -0.0000 -1.0000
vn -0.0000 -0.0000 1.0000
vn -0.0000 1.0000 -0.0000
vn -0.0000 -1.0000 -0.0000
vn -0.9980 -0.0000 -0.0635
vn 0.9980 0.0635 -0.0000
vn 0.9980 -0.0635 -0.0000
vn -0.9980 -0.0000 0.0635
vn -0.9980 -0.0635 -0.0000
vn 0.9980 -0.0000 -0.0635
vn 0.9980 -0.0000 0.0635
vn -0.9980 0.0635 -0.0000
vn -1.0000 -0.0000 -0.0000
vn 1.0000 -0.0000 -0.0000
vt 0.128699 0.128699
vt 0.437703 0.477655
vt 0.427874 0.489292
vt 0.372837 0.449523
vt 0.392312 0.412658
vt 0.378795 0.452346
vt 0.427853 0.489190
vt 0.437668 0.475468
vt 0.788004 0.128699
vt 0.788004 0.788004
vt 0.510523 0.531798
vt 0.479702 0.440014
vt 0.394010 0.521588
vt 0.473401 0.446204
vt 0.502308 0.525547
vt 0.462128 0.539457
vt 0.385352 0.530106
vt 0.128699 0.788004
vt 0.438205 0.474817
vt 0.386065 0.404458
vt 0.464918 0.545450
vt 0.916827 0.629936
vt 0.916827 0.315141
vt 0.996048 0.388534
vt 0.999876 0.000124
vt 0.999876 0.314894
vt 0.953544 0.285283
vt 0.916827 0.071420
s 0
usemtl Material.001
f 17/1/1 18/2/1 14/3/1 13/4/1
f 3/5/2 7/6/2 8/7/2 4/8/2
f 19/9/2 20/10/2 11/11/2 10/12/2
f 5/13/1 1/14/1 2/15/1 6/16/1
f 3/5/3 1/14/3 5/13/3 7/6/3
f 8/7/4 6/16/4 2/15/4 4/8/4
f 17/1/4 13/4/4 15/17/4 19/18/4
f 18/2/3 12/19/3 11/11/3 20/10/3
f 8/7/5 7/6/5 13/4/5 14/3/5
f 4/8/6 2/15/6 11/11/6 12/19/6
f 1/14/7 3/5/7 9/20/7 10/12/7
f 5/13/8 6/16/8 16/21/8 15/17/8
f 7/6/9 5/13/9 15/17/9 13/4/9
f 3/5/10 4/8/10 12/19/10 9/20/10
f 2/15/11 1/14/11 10/12/11 11/11/11
f 6/16/12 8/7/12 14/3/12 16/21/12
f 14/3/3 18/2/3 20/10/3 16/21/3
f 9/20/4 17/1/4 19/9/4 10/12/4
f 15/17/2 16/21/2 20/10/2 19/18/2
f 9/20/1 12/19/1 18/2/1 17/1/1
f 19/22/13 20/23/13 21/24/13
f 19/25/14 17/26/14 22/27/14
f 19/25/14 22/27/14 23/28/14
