# Blender 5.1.2
# www.blender.org
mtllib Untitled.mtl
o Cube
v -1.000000 0.030075 0.928814
v -1.000000 0.294442 0.928814
v -1.000000 0.030075 -0.373842
v -1.000000 0.294442 -0.373842
v 1.000000 0.030075 0.928814
v 1.000000 0.294442 0.928814
v 1.000000 0.030075 -0.373842
v 1.000000 0.294442 -0.373842
v -1.000000 -0.041111 -0.373842
v -1.000000 -0.041111 1.000000
v -1.000000 0.365629 1.000000
v -1.000000 0.365629 -0.373842
v 1.000000 -0.041111 -0.373842
v 1.000000 0.365629 -0.373842
v 1.000000 -0.041111 1.000000
v 1.000000 0.365629 1.000000
v -0.940136 0.286529 -0.314715
v -0.940136 0.037988 -0.314715
v 0.940136 0.286529 -0.314715
v 0.940136 0.037988 -0.314715
v -0.940136 0.037988 0.909959
v -0.940136 0.286529 0.909959
v 0.940136 0.037988 0.909959
v 0.940136 0.286529 0.909959
vn -0.0000 -0.9912 -0.1326
vn 0.1310 -0.9914 -0.0000
vn -0.3004 -0.0000 -0.9538
vn -0.0000 -0.0000 1.0000
vn -0.0000 -1.0000 -0.0000
vn -0.0000 1.0000 -0.0000
vn -1.0000 -0.0000 -0.0000
vn -0.0000 -0.0000 -1.0000
vn 1.0000 -0.0000 -0.0000
vn -0.1310 -0.9914 -0.0000
vn -0.1310 0.9914 -0.0000
vn 0.3004 -0.0000 -0.9538
vn 0.1310 0.9914 -0.0000
vn -0.0000 0.9912 -0.1326
vt 0.483783 0.244833
vt 0.483783 0.290896
vt 0.483783 0.334571
vt 0.453845 0.201158
vt 0.483783 0.201158
vt 0.445783 0.336958
vt 0.491845 0.336958
vt 0.491845 0.383020
vt 0.445783 0.383020
vt 0.399721 0.290896
vt 0.445783 0.290896
vt 0.399721 0.336958
vt 0.570236 0.055329
vt 0.571491 0.966439
vt 0.006879 0.968761
vt 0.005624 0.057651
vt 0.453845 0.244833
vt 0.445783 0.244833
vt 0.445783 0.198771
vt 0.491845 0.198771
vt 0.491845 0.244833
vt 0.453845 0.290896
vt 0.491845 0.290896
vt 0.453845 0.334571
vt 0.754594 0.208249
vt 0.862310 0.208249
vt 0.862310 0.365388
vt 0.754594 0.365388
vt 0.862310 0.531115
vt 0.754594 0.531115
vt 0.862310 0.688254
vt 0.754594 0.688254
s 0
usemtl Material.001
f 4/1/1 8/2/1 19/2/1 17/1/1
f 8/2/2 6/3/2 24/3/2 19/2/2
f 1/4/3 2/5/3 22/5/3 21/4/3
f 15/6/4 16/7/4 11/8/4 10/9/4
f 9/10/5 13/11/5 15/6/5 10/12/5
f 14/13/6 12/14/6 11/15/6 16/16/6
f 1/4/7 3/17/7 9/18/7 10/19/7
f 2/5/7 1/4/7 10/19/7 11/20/7
f 4/1/7 2/5/7 11/20/7 12/21/7
f 3/17/8 7/22/8 13/11/8 9/18/8
f 8/2/8 4/1/8 12/21/8 14/23/8
f 7/22/9 5/24/9 15/6/9 13/11/9
f 6/3/9 8/2/9 14/23/9 16/7/9
f 5/24/9 6/3/9 16/7/9 15/6/9
f 21/25/7 22/26/7 17/27/7 18/28/7
f 18/28/8 17/27/8 19/29/8 20/30/8
f 20/30/9 19/29/9 24/31/9 23/32/9
f 2/5/10 4/1/10 17/1/10 22/5/10
f 3/17/11 1/4/11 21/4/11 18/17/11
f 6/3/12 5/24/12 23/24/12 24/3/12
f 5/24/13 7/22/13 20/22/13 23/24/13
f 7/22/14 3/17/14 18/17/14 20/22/14
