# Blender 5.1.2
# www.blender.org
mtllib Untitled.mtl
o Cube
v -0.137364 -0.035903 0.969502
v -0.137364 2.994118 0.969502
v -0.137364 -0.035903 -0.969502
v -0.137364 2.994118 -0.969502
v 0.137364 -0.035903 0.969502
v 0.137364 2.994118 0.969502
v 0.137364 -0.035903 -0.969502
v 0.137364 2.994118 -0.969502
vn -1.0000 -0.0000 -0.0000
vn -0.0000 -0.0000 -1.0000
vn 1.0000 -0.0000 -0.0000
vn -0.0000 -0.0000 1.0000
vn -0.0000 -1.0000 -0.0000
vn -0.0000 1.0000 -0.0000
vt 0.650778 0.133134
vt 0.756353 0.133134
vt 0.756353 0.238709
vt 0.650778 0.238709
vt 0.756353 0.344284
vt 0.650778 0.344284
vt 0.553954 0.391218
vt 0.553954 0.992530
vt 0.001903 0.992530
vt 0.001902 0.391218
vt 0.650778 0.449858
vt 0.756353 0.449858
vt 0.756353 0.555433
vt 0.650778 0.555433
vt 0.545204 0.344284
vt 0.545204 0.449858
vt 0.861928 0.344284
vt 0.861928 0.449858
s 0
usemtl Material.001
f 1/1/1 2/2/1 4/3/1 3/4/1
f 3/4/2 4/3/2 8/5/2 7/6/2
f 7/7/3 8/8/3 6/9/3 5/10/3
f 5/11/4 6/12/4 2/13/4 1/14/4
f 3/15/5 7/6/5 5/11/5 1/16/5
f 8/5/6 4/17/6 2/18/6 6/12/6
